PathFileType	4	(X/Y/Z)	64_1_51_p1_0-359_filt_butterworth.trc
DataRate	CameraRate	NumFrames	NumMarkers	Units	OrigDataRate	OrigDataStartFrame	OrigNumFrames
41.0	41.0	6	27	m	41.0	314	359
Frame#	Time	RHip			RKnee			RAnkle			RBigToe			RSmallToe			RHeel			LHip			LKnee			LAnkle			LBigToe			LSmallToe			LHeel			Neck			Head			Nose			RShoulder			RElbow			RWrist			RThumb			RIndex			RPinky			LShoulder			LElbow			LWrist			LThumb			LIndex			LPinky			
		X1	Y1	Z1	X2	Y2	Z2	X3	Y3	Z3	X4	Y4	Z4	X5	Y5	Z5	X6	Y6	Z6	X7	Y7	Z7	X8	Y8	Z8	X9	Y9	Z9	X10	Y10	Z10	X11	Y11	Z11	X12	Y12	Z12	X13	Y13	Z13	X14	Y14	Z14	X15	Y15	Z15	X16	Y16	Z16	X17	Y17	Z17	X18	Y18	Z18	X19	Y19	Z19	X20	Y20	Z20	X21	Y21	Z21	X22	Y22	Z22	X23	Y23	Z23	X24	Y24	Z24	X25	Y25	Z25	X26	Y26	Z26	X27	Y27	Z27	
314	7.658536585365853	0.301133054590589	0.7945051682923735	0.5269078895709219	0.2953771257919219	1.008115005010821	0.907244991182441	0.2149274795123747	1.2789759318010259	1.2801173156554468	0.2849804806649161	1.0903863677781704	1.4167482608925128	0.32537329862074077	1.1413531742834742	1.3901054141309994	0.18745699646609493	1.333907623484333	1.33037747390632	0.1164749532879946	0.7245182254299827	0.5682210780311383	0.08999945830108234	0.9050742903674157	0.9536225380900729	0.07752527769210005	1.1869166230101666	1.3007897066597618	0.13558057658865438	1.005932151821631	1.4264821672691008	0.058373480944146516	1.064307901453557	1.4113646658772658	0.07369006449580247	1.302310203460727	1.3242332969355475	0.3454814001909967	0.36341940689515106	0.2686811160633327	0.4612182419671017	0.04203504601247422	0.1848135464384795	0.4147566234722644	0.11304168612031379	0.3247145510992251	0.37763475121157225	0.5106802968391976	0.132761605338312	0.5221534985601258	0.6515836880127541	0.03164241122596383	0.6071961440824393	0.4693574205739368	0.051473606727647905	0.6421653553742885	0.30847471121555825	0.08063917780675182	0.648595199046116	0.3076072562958623	0.0629788686389435	0.6583492674945309	0.3411653326640506	0.06476078731721396	0.2348146687737761	0.2583925748343212	0.2881119208200507	0.3590890251172214	0.045245686736029245	0.4623109909598141	0.4657728497949949	-0.1594674080284838	0.6130974839260456	0.5275966398198544	-0.2943901928436801	0.6574801184915201	0.5238573219815957	-0.28209426822740624	0.6728736804208093	0.5072481514162384	-0.2060053465371074	0.6741548171453391
315	7.682926829268292	0.3040339730979755	0.7886145076072817	0.5264413327238514	0.29533519448064005	1.0081704653015824	0.9068780749513088	0.21656564904959238	1.2817015456899004	1.2806538398403364	0.28476732389721526	1.0883295981855148	1.4160426286553633	0.32237783614923327	1.143242196018522	1.3905701289024568	0.18820491568255499	1.3189380065465934	1.331112876573859	0.11540204182833805	0.7212987376501228	0.5669662640925207	0.0889976839618486	0.8964423656752016	0.9533894381119974	0.07756720297405723	1.1868933911678212	1.3007788652293486	0.13588413572466773	1.0054564638332115	1.4263795382478532	0.05878901035818915	1.0626626244002466	1.4112816946651972	0.07299580282311613	1.3015177966954834	1.3219409323545155	0.34570433977895976	0.3624411725965003	0.2727544541038255	0.45649725448517864	0.031866216970114616	0.18716931400025316	0.41479690704024985	0.11209420678522433	0.32756594739999306	0.3874221166104337	0.49207629120117735	0.13818907325290425	0.5212333989207348	0.6004569947894332	0.07218319278028681	0.6147151866871393	0.5081621735335311	0.0446662307032783	0.6660041156317822	0.3532669423958803	0.04237755086936079	0.672605485531376	0.35595296992178715	0.02223118105363154	0.6856688922757629	0.411909967926483	0.025511048988215865	0.23741917033378618	0.25358781210764	0.2896498548740551	0.3519700670912236	0.045678413692558456	0.468622097978564	0.4616491787560479	-0.15950175934471564	0.613876138354792	0.5228604121907983	-0.28668249123055745	0.662074337005602	0.5211001834413491	-0.2807772356977706	0.6743537662363253	0.5075785505539361	-0.2157925192309456	0.6764972942658436
316	7.7073170731707314	0.3041966665020919	0.7891677874322542	0.5264754305428045	0.2953401614251573	1.0083210058125376	0.9070519248891016	0.21900152509429782	1.2789586636874104	1.2804545731068009	0.2840779410930879	1.0876888899748538	1.4172234930243075	0.32209524304453496	1.1435906622181167	1.3905869427635669	0.18836029922671144	1.3126647318698883	1.329361769809866	0.11330890846455591	0.7196110252002104	0.5681991056693174	0.08865040503440416	0.8871960621367003	0.9543347188477638	0.07761195084857302	1.1868977489884123	1.3006540014519814	0.13670715296316271	1.0013150997747955	1.4263501798975697	0.05855125428492637	1.0631822086737617	1.4113356060849163	0.0732522102527482	1.3009330676791477	1.3217341669525031	0.3426741416206526	0.3647166387697294	0.2709518906172786	0.4566672852322438	0.021744648354733588	0.19081056798717186	0.4149094140423634	0.1132074138354037	0.32732749146472406	0.3918038432484533	0.4786467898419071	0.14221193590393844	0.5142594614897911	0.5616452993576325	0.10243334958492406	0.6202739625762292	0.5442594363218132	0.06154620705347772	0.681621142995694	0.4252553817206221	0.04316088697767181	0.6925942254963896	0.4250597631712843	0.023316179476863104	0.7037944733642387	0.494965061563929	0.02448313129859896	0.23594019950814676	0.2524478950648952	0.290065570419694	0.34652088782107215	0.03525686299177741	0.4798276322936471	0.458212953483326	-0.16172636580978778	0.6157638098029777	0.5172122503623571	-0.2779822642267367	0.6671434530744458	0.5151499682250827	-0.27606684745614446	0.6758141747411686	0.506115934278276	-0.22997026019105915	0.6807900727385554
317	7.73170731707317	0.3035491910391672	0.7905388834912128	0.5265891756684681	0.29575757131663205	1.0089324690383008	0.9097471119421567	0.2198374189650486	1.2789333916269945	1.280322533943343	0.2834332664474714	1.0907795192809089	1.4180346131797934	0.32241815581628974	1.144217727217482	1.3905334953048734	0.18845907801446926	1.3174046538312698	1.3244010484990414	0.11192381459542274	0.7203128733566851	0.5709294019593318	0.08890541336086526	0.882927735099228	0.956301114177426	0.07762359950320703	1.1871567704902812	1.3005992903840227	0.13731066772467404	0.9940042271170946	1.4263376529409508	0.05838648898168994	1.0632997554931334	1.4114889330357494	0.07442900752733386	1.3014005383449563	1.3220993613154657	0.33854488254541776	0.36899535720674015	0.26639852369656464	0.4578795366866414	0.019320824851391426	0.18959362064599988	0.41482474535855846	0.11274561150047195	0.32545539274401103	0.3914150661879633	0.4720699228333595	0.1449678139612784	0.5073204219549712	0.5553290324387794	0.12832570023820544	0.6202713513130993	0.5863360446748207	0.1032115887501625	0.6822775622186339	0.5357457924245602	0.07598644827220603	0.7057725402422478	0.5262632295318729	0.062009296553880724	0.7117862427376246	0.5826976484987574	0.0643475372957483	0.2291736678750892	0.25427099663694364	0.2899596549746801	0.33812397283851525	0.026485699795112394	0.4873210351244408	0.4565158363605411	-0.16348615981507073	0.6185226623901486	0.5135223007380364	-0.27440917949053356	0.6699765185718607	0.5083926273862079	-0.27500441218231364	0.6788596090065054	0.500724765404114	-0.2405791485601227	0.6862470659665513
318	7.7560975609756095	0.3032927314078119	0.7896628500886667	0.5269415196993068	0.2965071092373262	1.0096191312155571	0.9143178605073299	0.2191867964968805	1.2865176770510887	1.2800206110199408	0.28323563345996616	1.0938990145478955	1.4174690188598142	0.322391468606518	1.1454689807002654	1.3904890476823732	0.18827512431468565	1.3238672744023119	1.3213762419131196	0.11181031375267395	0.7212370235486921	0.5734021061202651	0.0891275561088738	0.8834422698817179	0.95915919789317	0.0775976019758402	1.1875683150812235	1.3007003377689403	0.13748642578426434	0.9900252258555651	1.426517537930585	0.05847521960304393	1.0631423582083006	1.4117352065692328	0.07525847607524916	1.302705209345016	1.322426471401884	0.3360378183285812	0.37223841450860284	0.2638591480507785	0.4582340063804192	0.021472520679869902	0.18259053670247274	0.4147429103756785	0.11048125913624157	0.32211881581631535	0.39276413483525385	0.46680255144679084	0.15026342359034348	0.5082448849257157	0.5689379424851896	0.15527857132032358	0.6196644998087172	0.6349088868012713	0.15331741432858767	0.6759157553490187	0.6541750340358984	0.12801323846054896	0.7109620774610194	0.6220838509533131	0.12511223891277945	0.7046966186740751	0.6694447692147166	0.12903499536549298	0.21813197156308678	0.2593805344108612	0.28839538995596153	0.3254901843883142	0.03127842329279122	0.4872196570769013	0.45588779863273954	-0.16276006508832158	0.6219511119023147	0.5107504073048403	-0.2777609300217124	0.6694231558027538	0.5029236744825082	-0.27673588430226714	0.6830584132313344	0.4938662524692408	-0.23694364437984045	0.6904749169719591
319	7.780487804878049	0.30333596232000304	0.7884566868963652	0.5276420500946359	0.29686665467147055	1.009775398497901	0.916050514763705	0.21860363365122354	1.29356400360176	1.2795172274822273	0.28334847527818524	1.0950177845283455	1.4174748899280218	0.32240324763340483	1.1458796636276887	1.390432462828621	0.18800549361529184	1.326171615742463	1.3235420616091864	0.11213440533923258	0.7198297347003793	0.5732110651657684	0.08914751626787104	0.8844445941260319	0.9604023837641598	0.07758504094128992	1.187700469579879	1.3007930015580498	0.1374583586913183	0.9936827277849578	1.42653524751245	0.058620073655180335	1.063298269812262	1.4119928552905454	0.07524760012927525	1.3048555605424506	1.3226107128409923	0.33572162992094084	0.3716316065552008	0.2629081236082306	0.45934827305349585	0.024325383208185482	0.17273890297385297	0.41478400443937036	0.10755886515539764	0.3166036887558372	0.3985162311597468	0.460851374927965	0.15769573875546555	0.5052841220047242	0.590154246734296	0.17429836139631494	0.6165696606009236	0.676285837004527	0.1961437939148169	0.6759718353162265	0.7347662664942403	0.17958327886414266	0.7082795769876271	0.6865933975785886	0.18561889712776936	0.688045515870964	0.7334115483133469	0.19754044287801267	0.20848291219901496	0.2682046029574476	0.2831857143237099	0.31285705117159107	0.04697630156987648	0.4824307664613939	0.4558101965563761	-0.1592827137322909	0.6263968989262096	0.5086099412516188	-0.2795632090594178	0.6675664339848726	0.5026325132046383	-0.27546512958725	0.6858714316502351	0.49139486684526	-0.22287445863518662	0.693127813146612
